<svg width="212" height="189" viewBox="0 0 212 189" fill="none" xmlns="http://www.w3.org/2000/svg">
<path d="M35.9422 -23.584C18.3864 -20.7967 4.44985 -8.02501 0.123286 9.28124C-1.20796 14.6894 -1.12476 24.2162 0.331294 29.7076C2.41137 37.4455 6.15551 44.0185 11.6469 49.4683C15.6407 53.4205 18.9272 55.7502 24.1274 58.2047C29.91 60.9088 33.5293 61.7408 40.6016 61.9904C47.5075 62.24 52.0836 61.4912 57.8663 59.2447C68.4747 55.1678 78.1678 45.4746 82.2448 34.8662C86.1137 24.965 86.0721 12.9006 82.2448 3.33222C80.6639 -0.703134 77.8766 -5.44571 76.4622 -6.52735C74.6733 -7.98341 72.718 -7.44259 71.8028 -5.32091C71.262 -3.94806 71.3452 -3.65685 74.0493 0.711319C77.0862 5.70351 78.5006 10.7373 78.7502 17.6432C79.0831 25.6723 77.5438 31.6629 73.3836 38.7351C71.5948 41.7721 64.7721 48.5947 61.7352 50.3836C57.9495 52.6301 53.1237 54.5437 49.3795 55.2926C44.1377 56.3326 36.1918 55.9582 31.4493 54.4189C18.6776 50.3004 9.73325 40.8152 6.23872 27.7523C5.11547 23.4674 5.19868 14.3982 6.40512 9.90526C8.27719 3.16581 11.6469 -2.5336 16.7223 -7.40099C20.1752 -10.6875 22.5881 -12.3516 26.5819 -14.2236C37.2319 -19.299 50.378 -18.7166 60.6536 -12.726C63.8569 -10.8539 65.0633 -10.7291 66.3114 -12.0604C67.6842 -13.5164 67.5178 -15.3469 65.8954 -16.7613C63.7737 -18.5502 57.2422 -21.4207 52.7909 -22.5856C48.2147 -23.7504 40.0608 -24.2496 35.9422 -23.584Z" fill="white" fill-opacity="0.1"/>
<path d="M161.537 -23.376C147.642 -20.7551 136.493 -12.3932 130.295 0.00408853C127.216 6.16112 125.885 11.9437 125.885 19.1824C125.885 31.1637 130.003 40.8984 138.532 49.4683C147.102 58.0383 156.836 62.1152 168.859 62.1152C188.62 62.1152 205.469 49.0939 210.627 29.8324C211.584 26.2547 211.709 24.8818 211.75 19.2656C211.75 13.8158 211.626 12.2349 210.794 9.11483C206.633 -6.90177 194.611 -18.9662 178.927 -22.7936C174.392 -23.9168 165.864 -24.208 161.537 -23.376ZM178.095 -16.5533C184.377 -14.8893 189.369 -12.0604 194.278 -7.40099C208.547 6.24432 209.587 27.9187 196.732 43.1449C189.826 51.3404 179.884 55.875 168.818 55.875C158.168 55.8334 149.098 51.8812 141.86 44.1017C137.242 39.1096 134.039 32.9109 132.707 26.3795C131.667 21.1377 132.042 13.1918 133.581 8.44921C137.949 -5.0713 148.474 -14.4733 162.286 -17.1774C166.321 -17.9678 173.851 -17.6766 178.095 -16.5533Z" fill="white" fill-opacity="0.1"/>
<path d="M174.975 -1.57677C165.198 0.919322 163.451 1.58495 161.745 3.37381C159.499 5.7867 159.166 7.20116 159.166 14.9806V22.1361L156.545 21.8865C145.687 20.8881 141.569 35.7398 151.428 40.316C155.464 42.1881 159.166 41.4808 162.328 38.2359C165.281 35.199 165.406 34.4502 165.406 20.3889C165.406 8.69881 165.406 8.57401 166.363 7.70038C166.987 7.11795 169.816 6.20272 175.807 4.70506C180.508 3.54022 184.668 2.50018 185.084 2.37538C185.749 2.16737 185.791 2.74979 185.791 10.4877V18.8496L183.337 18.6C178.968 18.1424 175.224 20.2224 173.435 24.133C171.355 28.7092 172.936 33.8678 177.263 36.5303C179.01 37.6119 179.676 37.7783 182.213 37.7783C185.583 37.7367 187.039 37.1543 189.286 34.8246C191.948 32.0789 192.073 31.1221 191.948 14.7726C191.823 0.794517 191.782 0.128892 190.95 -0.952748C188.287 -4.57208 186.789 -4.61369 174.975 -1.57677ZM184.585 25.8803C185.292 26.6291 185.791 27.5443 185.791 28.2099C185.791 29.5412 183.753 31.7461 182.463 31.7461C181.256 31.7461 179.301 30.6644 178.968 29.874C178.386 28.3347 178.719 26.7123 179.8 25.7139C181.34 24.2994 183.045 24.341 184.585 25.8803ZM157.668 28.9172C158.292 29.458 158.875 30.4564 159 31.2053C159.208 32.3285 159.041 32.7445 158.001 33.8262C156.379 35.407 154.548 35.4902 153.134 34.0342C149.972 30.914 154.34 26.0051 157.668 28.9172Z" fill="white" fill-opacity="0.1"/>
<path d="M48.589 -5.02971C46.509 -4.48889 43.056 -2.49201 42.432 -1.49357C42.3072 -1.24396 41.8496 -1.57678 41.392 -2.3256C40.0607 -4.57209 36.9822 -4.44728 35.9422 -2.1592C35.4845 -1.16076 36.0254 1.33533 37.5646 5.37068C37.6478 5.6619 36.7742 5.9115 35.1517 6.11951C30.0763 6.61873 25.9162 9.44764 23.7529 13.7326C22.6297 15.9375 22.5048 16.5199 22.5465 20.3056C22.5881 29.5412 26.7898 37.9031 32.9052 40.8984C34.7773 41.8553 35.5677 41.9385 41.4336 42.0633C47.1746 42.1881 48.173 42.1049 50.2115 41.356C54.7461 39.6504 58.407 35.2822 60.4455 29.0836C61.4023 26.1715 61.5687 25.0066 61.5687 20.3056C61.6103 15.0638 61.5687 14.8558 60.3623 12.651C59.6966 11.4029 58.4486 9.90525 57.6166 9.28123L56.1189 8.19959L57.2838 6.49393C58.7398 4.41385 59.9047 0.128888 59.5718 -1.74318C59.239 -3.49045 58.3654 -4.23928 55.6197 -5.02971C52.874 -5.82014 51.5011 -5.82014 48.589 -5.02971ZM53.082 1.12733C53.082 2.12576 51.2515 4.41385 49.7539 5.16268C48.173 6.03631 45.5937 6.20272 45.5937 5.49549C45.5937 4.37225 47.4242 2.20897 49.0466 1.41854C51.0435 0.420099 53.082 0.253692 53.082 1.12733ZM48.6722 12.6094C54.6629 13.483 55.7861 14.939 55.4949 21.3041C55.1205 27.9187 52.7076 32.9525 48.9218 34.9494C47.1746 35.9062 46.6754 35.9478 41.6 35.823C36.6494 35.6982 36.0254 35.615 34.6941 34.6998C31.6988 32.6613 29.7019 28.5012 28.8283 22.5521C28.4955 20.056 28.4955 18.9744 28.9115 17.5599C29.5355 15.4383 31.6988 13.2334 33.6541 12.651C35.4429 12.1517 45.1361 12.1101 48.6722 12.6094Z" fill="white" fill-opacity="0.1"/>
<path d="M102.63 39.6504C98.6775 40.4824 94.4757 44.1849 93.1861 48.0539C91.1476 54.2525 93.6853 60.8672 99.3431 64.0289C101.34 65.1105 101.922 65.2353 105.5 65.2353C109.078 65.2353 109.66 65.1105 111.657 64.0289C119.062 59.9103 120.81 50.0508 115.235 43.8521C112.115 40.3992 107.164 38.7351 102.63 39.6504ZM107.705 46.057C110.742 47.1387 112.24 49.3435 112.24 52.6301C112.24 56.3742 109.369 59.2031 105.5 59.2031C101.631 59.2031 98.7607 56.3742 98.7607 52.6301C98.7607 50.4668 99.4679 48.6363 100.841 47.4299C101.756 46.5978 104.419 45.5162 105.5 45.5162C105.833 45.5162 106.831 45.7658 107.705 46.057Z" fill="white" fill-opacity="0.1"/>
<path d="M89.6082 69.6451C82.8687 70.6436 77.1693 76.343 75.9629 83.3736C75.6716 84.9545 75.5468 89.6555 75.63 94.8557C75.7548 103.301 75.7964 103.717 76.6701 104.59C77.7933 105.714 79.7902 105.797 80.9134 104.798C81.6623 104.133 81.7455 103.342 81.8703 93.8156C81.9951 82.1256 82.2447 81.1271 85.4064 78.2982C88.3185 75.6773 88.6513 75.6357 105.5 75.6357C122.349 75.6357 122.681 75.6773 125.594 78.2982C128.755 81.1271 129.005 82.1256 129.13 93.8156C129.254 103.342 129.338 104.133 130.086 104.798C131.21 105.797 133.207 105.714 134.33 104.59C135.203 103.717 135.245 103.301 135.37 94.8557C135.453 89.6555 135.328 84.9545 135.037 83.3736C133.789 76.135 128.214 70.6436 121.059 69.6035C117.648 69.1043 93.0195 69.1459 89.6082 69.6451Z" fill="white" fill-opacity="0.1"/>
<path d="M89.8578 87.1178C89.109 87.9498 89.0674 88.7818 89.0674 99.1822C89.0674 110.123 89.0674 110.373 89.9826 111.247C91.1059 112.37 93.1027 112.453 94.2676 111.413C95.058 110.706 95.0996 110.165 95.0996 99.1406C95.0996 88.4906 95.058 87.5754 94.3508 86.9514C93.2275 85.9529 90.8146 86.0361 89.8578 87.1178Z" fill="white" fill-opacity="0.1"/>
<path d="M116.608 86.993C115.984 87.6586 115.9 89.1562 115.9 99.2238C115.9 110.165 115.942 110.706 116.732 111.413C117.897 112.453 119.894 112.37 121.017 111.247C121.933 110.373 121.933 110.123 121.933 99.1822C121.933 88.7818 121.891 87.9498 121.142 87.1178C120.102 85.9945 117.564 85.9113 116.608 86.993Z" fill="white" fill-opacity="0.1"/>
<path d="M33.9455 103.467C29.9101 104.341 26.2492 105.672 22.297 107.711C11.3142 113.41 3.61792 123.02 0.372998 135.251C-0.583838 138.745 -0.708643 140.118 -0.750244 145.734C-0.750244 150.976 -0.583838 152.848 0.123389 155.719C4.11714 171.652 16.0152 183.592 32.115 187.794C35.2351 188.626 36.816 188.75 42.2658 188.75C47.882 188.709 49.2548 188.584 52.791 187.627C67.9755 183.55 79.7904 171.819 83.8673 156.759C85.2402 151.725 85.4482 142.656 84.3666 137.414C82.6609 129.094 79 122.188 73.0925 116.072C67.3099 110.082 60.7369 106.213 52.7494 104.05C48.6308 102.968 38.0224 102.635 33.9455 103.467ZM49.6709 109.791C56.6183 111.205 62.6089 114.492 68.0587 119.941C75.4222 127.305 78.8752 135.584 78.8752 145.901C78.8752 156.884 74.299 166.868 66.1451 173.732C59.4472 179.432 52.4582 182.177 43.7218 182.635C26.582 183.467 11.0646 172.027 6.40522 155.095C5.19878 150.602 5.11558 141.533 6.23882 137.248C10.0662 122.937 21.1322 112.328 35.2351 109.583C38.3552 108.959 46.2179 109.083 49.6709 109.791Z" fill="white" fill-opacity="0.1"/>
<path d="M19.8424 130.591C19.0104 131.673 18.9688 132.047 18.9688 146.026V160.336L20.0088 161.335C21.0072 162.375 21.0904 162.375 28.9531 162.375C36.691 162.375 36.9406 162.417 37.8559 163.332C38.3551 163.873 38.9375 165.079 39.0623 165.994C39.5615 168.948 42.1824 169.988 44.1377 167.991C44.7201 167.45 45.1777 166.494 45.1777 165.911C45.1777 165.245 45.677 164.33 46.3842 163.581L47.5906 162.375H55.2869C62.4008 162.375 63.0248 162.333 64.0648 161.501L65.1465 160.669V145.901C65.1465 131.715 65.1049 131.132 64.3145 130.342C63.524 129.551 62.9416 129.51 54.9957 129.51H46.509L44.3041 130.675L42.0576 131.839L40.4352 130.799C38.8127 129.718 38.6463 129.718 29.7852 129.593L20.7576 129.468L19.8424 130.591ZM37.8975 136.79L38.9375 137.788V147.232V156.634L38.0223 156.384C37.4814 156.26 34.4029 156.135 31.158 156.135H25.209V145.942V135.75H31.0332C36.691 135.75 36.9406 135.792 37.8975 136.79ZM58.9062 145.942V156.135H52.9988C49.7123 156.135 46.6338 156.26 46.1346 156.384L45.1777 156.634V147.648C45.1777 138.496 45.3441 137.414 46.8002 136.291C47.2578 135.958 49.3379 135.792 53.2068 135.75H58.9062V145.942Z" fill="white" fill-opacity="0.1"/>
<path d="M159.998 103.675C151.47 105.547 144.897 109.167 138.532 115.532C132.042 122.021 128.464 128.595 126.634 137.414C125.51 142.697 125.76 151.767 127.133 156.759C128.215 160.753 130.96 166.702 133.373 170.321C138.865 178.475 148.183 184.923 158.292 187.669C161.745 188.584 163.16 188.709 168.734 188.75C174.184 188.75 175.765 188.626 178.885 187.794C194.985 183.592 206.592 171.985 210.794 155.885C211.626 152.765 211.75 151.184 211.75 145.734C211.709 140.16 211.584 138.745 210.669 135.292C206.55 119.941 194.819 108.127 179.634 104.05C174.975 102.802 164.865 102.594 159.998 103.675ZM179.551 110.581C192.281 114.658 201.267 124.185 204.761 137.289C205.885 141.533 205.801 150.602 204.595 155.095C202.723 161.834 199.353 167.534 194.278 172.401C189.369 177.06 184.335 179.889 178.095 181.512C159.041 186.462 139.697 175.604 133.581 156.551C132.042 151.808 131.667 143.862 132.707 138.62C134.164 131.382 137.408 125.474 142.941 119.941C147.102 115.781 149.556 114.117 154.881 111.829C159.957 109.624 163.035 109.125 169.982 109.291C175.183 109.416 176.514 109.583 179.551 110.581Z" fill="white" fill-opacity="0.1"/>
<path d="M145.521 130.342C144.772 130.799 143.815 131.756 143.357 132.505C142.567 133.795 142.525 134.627 142.525 145.693C142.525 157.05 142.567 157.549 143.441 159.088C144.938 161.793 146.935 162.458 152.843 162.292C157.502 162.167 157.876 162.084 159.291 161.002C160.289 160.253 161.038 159.172 161.537 157.799L162.286 155.719H169.026H175.807V156.717C175.807 157.924 177.304 160.128 178.844 161.293C179.925 162.084 180.591 162.167 185.583 162.167C191.657 162.167 192.322 161.959 194.278 159.296C195.11 158.215 195.151 157.508 195.276 146.483C195.401 135.459 195.359 134.752 194.527 133.087C193.154 130.175 191.449 129.51 185.583 129.51C180.133 129.51 178.469 130.009 177.013 132.047C176.555 132.713 176.056 133.92 175.931 134.71L175.682 136.166H168.901H162.12L161.829 134.668C161.704 133.878 161.08 132.63 160.539 131.964C158.708 129.843 157.627 129.51 152.011 129.51C147.642 129.51 146.686 129.635 145.521 130.342ZM155.838 145.942V156.135H152.302H148.766V145.942V135.75H152.302H155.838V145.942ZM189.119 145.942V156.135H185.583H182.047V145.942V135.75H185.583H189.119V145.942ZM175.807 145.942V149.478H168.942H162.078V145.942V142.406H168.942H175.807V145.942Z" fill="white" fill-opacity="0.1"/>
</svg>
