<svg width="212" height="189" viewBox="0 0 212 189" fill="none" xmlns="http://www.w3.org/2000/svg">
<path d="M57.4086 -18.883C54.3301 -17.7182 51.6676 -15.0141 50.6691 -11.9771C49.9203 -9.81386 50.0035 55.6254 50.7523 57.3311C51.2516 58.4959 51.21 58.6623 49.7539 60.2848C47.5906 62.6145 47.2578 64.7777 48.5891 67.4402C49.8371 69.9363 51.7924 71.2676 54.2053 71.2676C57.6166 71.2676 60.0711 69.4371 60.8615 66.2754C61.2359 64.8609 61.3191 64.8193 63.3992 64.6945L65.5625 64.5697V73.5141V82.5H61.86C56.6598 82.5 56.8262 82.2504 56.8262 90.5291V97.2686L49.4211 89.8635L42.0576 82.5H24.8762H7.73633V64.8193V47.1387H25.7498C41.3504 47.1387 43.8465 47.0555 44.6785 46.473C45.8018 45.7242 45.885 44.185 44.8449 43.2697C44.1377 42.6457 42.1408 42.5625 24.4602 42.5625C7.23711 42.5625 4.82422 42.6457 4.2418 43.2281C3.65937 43.8105 3.57617 46.3482 3.57617 64.8193V85.7865L4.49141 86.4105C5.28184 86.993 7.77793 87.0762 22.9209 87.0762H40.3936L49.1299 95.8125C55.9525 102.635 58.0742 104.549 58.9062 104.549C60.9031 104.549 60.9863 104.133 60.9863 95.3133V87.0762H64.7305C70.4299 87.0762 70.1387 87.7002 70.1387 75.0117V64.6113H78.3342H86.5297L95.5156 73.5557C102.213 80.2119 104.751 82.5 105.5 82.5C106.249 82.5 108.787 80.2119 115.484 73.5557L124.47 64.5697L130.503 64.6945L136.493 64.8193L136.701 72.0996C136.909 79.1719 136.951 79.4215 138.074 81.3768C140.071 84.7465 144.314 87.0762 148.433 87.0762H150.014V94.1068C150.014 99.9727 150.138 101.262 150.679 101.803C152.052 103.218 152.926 102.594 160.788 94.7725L168.526 87.1178L183.753 86.993L198.937 86.8682L201.392 85.6201C204.179 84.2057 206.342 81.7096 207.008 79.1719C207.299 78.0902 207.424 69.8947 207.341 54.9598L207.216 32.3701L206.051 30.3732C204.637 28.002 202.224 26.1299 199.395 25.2979C196.275 24.3826 147.85 24.3826 144.73 25.2979C141.901 26.1299 139.488 28.002 138.074 30.3732L136.909 32.3701L136.701 46.3066L136.493 60.2432L129.421 60.368L122.349 60.4512L113.945 68.8963L105.5 77.2998L97.0549 68.8547L88.6514 60.4512H74.7148C66.8521 60.4512 60.1543 60.2848 59.3223 60.0352C57.4502 59.5359 55.2869 57.3311 54.7461 55.4174C54.4965 54.5438 54.3301 41.9385 54.3301 22.5938C54.3301 3.24903 54.4965 -9.35625 54.7461 -10.2299C55.2869 -12.1436 57.4502 -14.3484 59.3223 -14.8477C61.3191 -15.3885 149.722 -15.4301 151.636 -14.8477C153.55 -14.3068 155.755 -12.1436 156.254 -10.2715C156.504 -9.43945 156.67 -2.7 156.67 5.2043V19.2656L157.71 19.9313C158.667 20.5553 158.833 20.5553 159.79 19.9313L160.872 19.224L160.747 3.74825C160.622 -13.4748 160.664 -13.2252 157.627 -16.2205C154.423 -19.4654 158.75 -19.2158 105.916 -19.299C70.4715 -19.3406 58.3654 -19.2574 57.4086 -18.883ZM199.478 30.082C200.393 30.5397 201.558 31.5797 202.057 32.4533L203.056 34.0342V55.875V77.7158L202.057 79.2967C201.558 80.1703 200.393 81.2104 199.478 81.668C197.98 82.4584 196.982 82.5 182.38 82.5H166.862L160.83 88.5322C157.502 91.8604 154.673 94.5645 154.507 94.5645C154.299 94.5645 154.174 92.1516 154.174 89.1979C154.174 82.5 154.174 82.5 149.556 82.5C145.562 82.5 143.482 81.6264 142.068 79.2967L141.069 77.7158V55.875V34.0342L142.026 32.4533C142.567 31.5797 143.69 30.5397 144.522 30.082C145.978 29.3332 147.185 29.2916 171.979 29.25C196.94 29.25 197.939 29.2916 199.478 30.082ZM55.3285 63.0305C56.6182 63.5713 57.0342 64.6945 56.4518 65.8178C55.7861 66.9826 54.4549 67.2738 53.29 66.525C52.0836 65.7346 51.9588 64.4033 52.9572 63.2801C53.7477 62.4064 53.9557 62.3648 55.3285 63.0305Z" fill="white" fill-opacity="0.1"/>
<path d="M170.606 43.2281C169.65 44.185 158.75 66.109 158.75 67.0242C158.75 67.4818 159.083 68.1059 159.499 68.4803C160.164 69.1043 161.662 69.1875 172.146 69.1875C183.087 69.1875 184.044 69.1459 184.668 68.4387C185.084 68.0227 185.375 67.357 185.375 66.9826C185.375 66.0674 174.434 44.1434 173.519 43.2281C173.144 42.8537 172.479 42.5625 172.062 42.5625C171.646 42.5625 170.981 42.8537 170.606 43.2281ZM175.931 57.3311L179.551 64.6113H172.062H164.574L168.194 57.3311C170.19 53.3373 171.938 50.0508 172.062 50.0508C172.187 50.0508 173.935 53.3373 175.931 57.3311Z" fill="white" fill-opacity="0.1"/>
<path d="M126.176 -3.28242C125.219 -2.20078 125.302 -0.869531 126.384 -0.120703C127.05 0.336914 128.298 0.544922 130.752 0.544922H134.205V3.99785C134.205 7.8252 134.829 9.28125 136.452 9.28125C138.407 9.28125 138.781 8.19961 138.781 2.5418C138.781 -4.23926 138.989 -4.03125 132.042 -4.03125C127.549 -4.03125 126.758 -3.94805 126.176 -3.28242Z" fill="white" fill-opacity="0.1"/>
<path d="M88.9842 2.08419C86.4465 2.95782 83.2848 5.99473 81.9119 8.78204C80.9551 10.7373 80.7471 11.6941 80.7471 14.315C80.7471 19.5152 81.7871 21.0545 93.81 33.4934C99.3846 39.276 104.294 44.185 104.751 44.393C105.209 44.601 105.791 44.601 106.249 44.393C106.665 44.185 111.574 39.276 117.19 33.4934C129.213 21.0545 130.253 19.5568 130.253 14.315C130.253 11.6941 130.045 10.7373 129.088 8.78204C126.883 4.28907 122.473 1.37696 117.772 1.37696C114.195 1.37696 111.948 2.417 108.579 5.66192L105.5 8.57403L102.421 5.66192C98.9686 2.3754 96.7637 1.37696 93.0611 1.41856C91.7715 1.41856 89.941 1.70977 88.9842 2.08419ZM96.4725 6.53555C97.2213 6.86837 99.3014 8.61563 101.132 10.4877C103.503 12.9006 104.751 13.8574 105.458 13.8574C106.207 13.8574 107.58 12.7758 110.284 10.1549C114.361 6.11954 115.401 5.66192 119.062 6.07794C122.681 6.45235 125.885 10.3213 125.885 14.2734C125.885 17.6848 124.47 19.5984 114.652 29.666L105.5 39.0264L96.3477 29.666C86.6129 19.6816 85.1152 17.6432 85.1152 14.3982C85.1152 11.1117 87.1537 7.7836 89.8994 6.53555C91.5219 5.82833 94.7668 5.78673 96.4725 6.53555Z" fill="white" fill-opacity="0.1"/>
<path d="M72.9259 36.6551C72.3435 37.2791 72.2187 38.3607 72.2187 42.6457C72.2187 49.4267 72.0107 49.2187 78.9581 49.2187C83.4511 49.2187 84.2415 49.1355 84.824 48.4699C85.7808 47.3883 85.6976 46.057 84.6159 45.3082C83.9503 44.8506 82.7023 44.6426 80.2478 44.6426H76.7949V41.1896C76.7949 37.3623 76.1708 35.9062 74.5484 35.9062C74.0075 35.9062 73.3003 36.2391 72.9259 36.6551Z" fill="white" fill-opacity="0.1"/>
<path d="M17.263 58.3295C14.0597 59.3696 12.0628 62.2401 12.4373 65.3602C13.3109 73.1397 24.6265 73.1397 25.5002 65.3602C25.9994 60.9504 21.3816 57.0399 17.263 58.3295ZM20.3832 63.1969C21.3816 64.1953 21.2152 65.7346 20.0087 66.525C19.0519 67.149 18.8855 67.149 17.9287 66.525C16.1814 65.3602 16.9302 62.5313 18.9687 62.5313C19.3847 62.5313 20.0503 62.8225 20.3832 63.1969Z" fill="white" fill-opacity="0.1"/>
<path d="M33.9454 58.8703C31.1997 60.2848 30.0765 62.1568 30.2845 65.0689C30.5757 68.9795 33.0302 71.2676 36.9823 71.2676C40.6849 71.2676 43.9298 67.3986 43.3058 63.7377C42.8066 60.7424 39.52 57.9551 36.4415 57.9551C36.0671 57.9551 34.9439 58.3711 33.9454 58.8703ZM38.1888 63.2385C39.2704 64.1953 39.1456 65.693 37.8976 66.525C35.7759 67.8979 33.571 65.6514 34.9439 63.5713C35.7343 62.3648 37.0655 62.24 38.1888 63.2385Z" fill="white" fill-opacity="0.1"/>
<path d="M77.4605 89.8219C76.5869 90.6955 76.5453 97.1854 77.4189 99.2654C78.1677 101.096 80.0398 102.968 81.9535 103.883C82.9103 104.341 83.4511 104.882 83.4511 105.422C83.4511 105.838 82.4111 108.792 81.1631 111.912C79.915 115.074 78.875 117.945 78.875 118.361C78.875 119.442 80.539 120.357 82.4943 120.357C84.2416 120.357 84.2416 120.357 85.5312 123.062C87.1537 126.431 91.1058 130.758 94.226 132.588C96.4724 133.878 96.5556 134.003 96.6804 135.833L96.8052 137.705L91.2722 137.955C85.3648 138.204 82.7439 138.787 78.8334 140.742C73.4668 143.488 68.641 149.021 66.7273 154.804C65.8537 157.383 65.8121 158.464 65.6457 170.321C65.5209 181.678 65.5625 183.134 66.1865 183.758C66.8105 184.382 70.3051 184.424 105.5 184.424C140.82 184.424 144.189 184.382 144.813 183.758C145.437 183.134 145.479 181.72 145.354 170.321C145.229 157.716 145.188 157.549 144.106 154.512C141.319 146.899 135.37 141.241 127.549 138.87C126.176 138.454 123.056 138.08 119.769 137.955L114.236 137.705V135.75C114.236 134.003 114.361 133.753 115.609 133.171C119.728 131.215 124.304 125.89 126.259 120.815C127.258 118.194 127.299 117.612 127.466 108.043C127.59 98.3918 127.59 97.8926 126.675 95.8541C126.134 94.5645 125.011 93.0252 123.929 92.0684C120.601 89.1563 120.685 89.1563 98.1781 89.1563C80.4974 89.1563 78.0429 89.2395 77.4605 89.8219ZM120.102 94.6893C120.893 95.1885 121.933 96.4365 122.473 97.4766C123.305 99.1406 123.389 99.9311 123.389 105.298V111.33L121.933 111.08C118.729 110.581 116.732 107.919 116.732 104.258C116.732 103.093 116.441 101.845 116.067 101.304L115.443 100.389H100.217C87.2369 100.389 84.824 100.305 83.6592 99.723C82.1199 99.0158 80.9551 96.9773 80.9551 95.0221V93.7324H99.8422H118.688L120.102 94.6893ZM112.447 106.837C113.363 111.163 117.148 114.866 121.392 115.573C122.265 115.74 122.973 116.031 122.973 116.197C122.973 117.362 120.809 122.229 119.478 124.06C113.945 131.548 103.295 133.462 95.7652 128.262C92.2707 125.89 88.4433 120.607 88.4433 118.153C88.4433 117.029 86.9041 115.781 85.5728 115.781H84.3248L85.9888 111.746C86.8625 109.541 87.6113 107.128 87.6113 106.421C87.6113 105.714 87.7361 104.965 87.9025 104.84C88.0273 104.674 93.5187 104.549 100.092 104.549H111.99L112.447 106.837ZM110.076 138.329C110.076 141.325 110.659 142.406 112.239 142.406C112.739 142.406 112.988 142.614 112.863 142.905C111.865 145.568 105.708 158.631 105.5 158.631C105.292 158.631 99.1349 145.568 98.1365 142.905C97.9701 142.531 98.7189 142.406 100.965 142.406C103.17 142.406 104.169 142.24 104.751 141.699C106.498 140.16 105.001 137.83 102.297 137.83C101.09 137.83 100.924 137.705 100.924 136.665V135.542H105.5H110.076V138.329ZM98.3445 154.221C101.881 162.042 103.919 165.994 104.543 166.41C106.374 167.617 107.039 166.577 112.655 154.221L117.939 142.614L120.144 142.489C128.922 141.949 137.408 147.939 140.029 156.509C140.778 158.839 140.861 160.378 140.861 169.697V180.264H105.5H70.1386V169.697C70.1386 160.378 70.2219 158.839 70.9707 156.509C73.55 148.064 81.5375 142.281 90.2322 142.531L93.0611 142.614L98.3445 154.221Z" fill="white" fill-opacity="0.1"/>
<path d="M114.902 161.21C114.403 161.917 114.236 163.249 114.236 166.785C114.236 169.364 114.361 171.777 114.486 172.151C114.777 172.859 120.019 175.688 121.101 175.688C121.891 175.688 125.802 173.774 126.842 172.859C127.424 172.318 127.549 171.444 127.549 166.743C127.549 163.082 127.382 161.127 127.05 160.794C126.717 160.461 124.762 160.295 121.059 160.295C115.817 160.295 115.484 160.337 114.902 161.21ZM123.305 167.242C123.43 169.697 123.389 169.863 122.265 170.404C121.267 170.945 120.976 170.945 119.977 170.446C118.896 169.863 118.812 169.655 118.812 167.118V164.413L121.017 164.538L123.181 164.663L123.305 167.242Z" fill="white" fill-opacity="0.1"/>
<path d="M150.929 111.871C150.139 112.412 150.014 112.869 150.014 115.157V117.82L142.734 117.945C138.615 118.028 135.328 118.236 135.12 118.485C134.871 118.693 134.58 119.359 134.413 119.858C134.164 120.732 135.079 121.813 142.068 128.844L150.014 136.832V145.61C150.014 153.056 150.097 154.512 150.679 155.053C151.262 155.636 154.382 155.719 178.719 155.719C203.056 155.719 206.176 155.636 206.758 155.053C207.341 154.471 207.424 151.933 207.424 133.462V112.495L206.509 111.871C205.677 111.288 202.349 111.205 178.719 111.205C155.089 111.205 151.761 111.288 150.929 111.871ZM203.264 133.462V151.143H178.719H154.174V142.947V134.71L148.059 128.595L141.901 122.438H147.393C154.008 122.438 154.174 122.354 154.174 118.444V115.781H178.719H203.264V133.462Z" fill="white" fill-opacity="0.1"/>
<path d="M161.496 123.353C160.622 124.601 160.664 125.183 161.662 126.182C162.453 126.972 163.035 127.014 178.719 127.014C194.403 127.014 194.985 126.972 195.775 126.182C196.774 125.183 196.815 124.601 195.942 123.353L195.318 122.438H178.719H162.12L161.496 123.353Z" fill="white" fill-opacity="0.1"/>
<path d="M161.662 132.006C160.664 133.004 160.622 133.587 161.496 134.835L162.12 135.75H178.719H195.318L195.942 134.835C196.815 133.587 196.774 133.004 195.775 132.006C194.985 131.215 194.403 131.174 178.719 131.174C163.035 131.174 162.453 131.215 161.662 132.006Z" fill="white" fill-opacity="0.1"/>
<path d="M161.413 141.366C160.789 142.323 160.789 142.489 161.413 143.446C162.037 144.403 162.328 144.486 165.406 144.486C168.485 144.486 168.776 144.403 169.4 143.446C170.024 142.489 170.024 142.323 169.4 141.366C168.776 140.409 168.485 140.326 165.406 140.326C162.328 140.326 162.037 140.409 161.413 141.366Z" fill="white" fill-opacity="0.1"/>
<path d="M174.725 141.366C174.101 142.323 174.101 142.489 174.725 143.446C175.89 145.194 178.719 144.445 178.719 142.406C178.719 140.368 175.89 139.619 174.725 141.366Z" fill="white" fill-opacity="0.1"/>
<path d="M183.794 140.825C183.503 141.117 183.295 141.824 183.295 142.406C183.295 143.779 184.002 144.486 185.375 144.486C186.748 144.486 187.455 143.779 187.455 142.406C187.455 141.824 187.247 141.117 186.956 140.825C186.332 140.201 184.418 140.201 183.794 140.825Z" fill="white" fill-opacity="0.1"/>
<path d="M192.697 140.992C191.324 142.323 192.364 144.486 194.319 144.486C194.943 144.486 195.609 144.07 196.025 143.446C196.649 142.489 196.649 142.323 196.025 141.366C195.235 140.16 193.695 139.993 192.697 140.992Z" fill="white" fill-opacity="0.1"/>
<path d="M4.07539 114.2C3.70098 114.575 3.57617 121.897 3.57617 144.528C3.57617 171.111 3.65937 174.439 4.2418 175.022C4.82422 175.604 7.73633 175.688 30.2012 175.688H55.5365L56.1605 174.772C56.743 173.982 56.8262 171.527 56.8262 156.384V138.912L64.5225 131.174C72.3436 123.27 72.9676 122.396 71.5531 121.023C71.0123 120.482 69.7227 120.357 63.8568 120.357H56.8262V117.945C56.8262 116.447 56.5766 115.199 56.1605 114.616L55.5365 113.701H30.0348C10.7732 113.701 4.4498 113.826 4.07539 114.2ZM52.25 120.524C52.25 124.434 52.4164 124.518 58.9478 124.518C61.9016 124.518 64.3145 124.642 64.3145 124.85C64.3145 125.017 61.6103 127.846 58.2822 131.174L52.25 137.206V154.138V171.111H29.9932H7.73633V144.778C7.73633 130.259 7.86113 118.277 8.02754 118.153C8.15234 117.986 18.1783 117.861 30.2844 117.861H52.25V120.524Z" fill="white" fill-opacity="0.1"/>
<path d="M15.2247 125.35C14.2262 126.348 14.1846 126.93 15.0582 128.179L15.6823 129.094H29.9516C43.2225 129.094 44.2625 129.052 44.8866 128.345C45.8434 127.263 45.7602 125.932 44.6786 125.183C43.8881 124.601 41.7664 124.518 29.91 124.518C16.5975 124.518 16.0151 124.559 15.2247 125.35Z" fill="white" fill-opacity="0.1"/>
<path d="M14.9751 134.71C14.3511 135.667 14.3511 135.833 14.9751 136.79L15.6407 137.83H29.9933C42.4321 137.83 44.3874 137.747 44.9282 137.164C45.3026 136.832 45.5938 136.166 45.5938 135.75C45.5938 135.334 45.3026 134.668 44.9282 134.336C44.3874 133.753 42.4321 133.67 29.9933 133.67H15.6407L14.9751 134.71Z" fill="white" fill-opacity="0.1"/>
<path d="M15.0582 143.321C14.1846 144.57 14.2262 145.152 15.2247 146.15C16.0151 146.941 16.5975 146.982 29.91 146.982C41.7665 146.982 43.8881 146.899 44.6786 146.317C45.8018 145.568 45.885 144.029 44.845 143.113C44.1377 142.489 42.5153 142.406 29.8684 142.406H15.6823L15.0582 143.321Z" fill="white" fill-opacity="0.1"/>
<path d="M15.2247 151.975C14.2262 152.973 14.1846 153.555 15.0582 154.804L15.6823 155.719H29.9516C43.2225 155.719 44.2625 155.677 44.8866 154.97C45.8434 153.888 45.7602 152.557 44.6786 151.808C43.8881 151.226 41.7664 151.143 29.91 151.143C16.5975 151.143 16.0151 151.184 15.2247 151.975Z" fill="white" fill-opacity="0.1"/>
<path d="M14.9751 161.335C14.3511 162.292 14.3511 162.458 14.9751 163.415L15.6407 164.455H29.9933C42.4321 164.455 44.3874 164.372 44.9282 163.789C45.3026 163.457 45.5938 162.791 45.5938 162.375C45.5938 161.959 45.3026 161.293 44.9282 160.961C44.3874 160.378 42.4321 160.295 29.9933 160.295H15.6407L14.9751 161.335Z" fill="white" fill-opacity="0.1"/>
</svg>
