<svg width="212" height="190" viewBox="0 0 212 190" fill="none" xmlns="http://www.w3.org/2000/svg">
<g opacity="0.1">
<path d="M105.708 -21.96L104.668 -20.9615V-2.90644V15.1486L105.708 16.1055C107.039 17.3535 108.953 17.3535 110.284 16.1055L111.324 15.1486V-2.90644V-20.9615L110.284 -21.96C109.66 -22.6256 108.787 -23 107.996 -23C107.206 -23 106.332 -22.6256 105.708 -21.96Z" fill="white"/>
<path d="M79.499 -4.48731L78.459 -3.48887V5.82988V15.1486L79.499 16.1055C80.123 16.6879 81.0383 17.0623 81.7871 17.0623C82.5359 17.0623 83.4512 16.6879 84.0752 16.1055L85.1152 15.1486V5.82988V-3.48887L84.0752 -4.48731C83.4512 -5.15293 82.5775 -5.52735 81.7871 -5.52735C80.9967 -5.52735 80.123 -5.15293 79.499 -4.48731Z" fill="white"/>
<path d="M131.917 -4.4873L130.877 -3.48887V5.78828C130.919 15.7727 130.96 16.1055 133.082 16.8959C134.371 17.3951 135.287 17.1455 136.618 15.9807C137.533 15.1486 137.533 14.9406 137.533 5.82988V-3.48887L136.493 -4.4873C135.869 -5.15293 134.996 -5.52734 134.205 -5.52734C133.415 -5.52734 132.541 -5.15293 131.917 -4.4873Z" fill="white"/>
<path d="M99.6759 24.2178C83.7841 26.9219 69.806 37.2807 62.6921 51.6748C59.0312 59.0383 57.4919 65.6529 57.4919 74.1397C57.4919 87.6186 62.1097 99.3086 71.2621 108.919C88.4019 126.974 115.485 129.886 136.493 116.032C138.116 114.992 141.319 112.247 143.607 109.917C151.262 102.346 155.921 93.526 157.96 82.668C158.625 79.1734 158.625 69.0643 157.96 65.6529C154.299 46.7242 141.652 32.0389 123.888 26.0899C116.816 23.7186 107.039 22.9697 99.6759 24.2178ZM115.318 31.1236C124.678 32.7877 132.749 37.1143 139.447 44.0617C144.73 49.5531 148.308 55.9182 150.305 63.4481C151.262 66.9842 151.387 68.3154 151.387 74.1397C151.387 80.0471 151.262 81.2951 150.305 84.9561C144.689 105.923 125.552 119.402 103.919 117.572C80.9552 115.616 63.233 95.19 64.4394 72.1012C65.4794 52.0492 79.624 35.575 99.4679 31.3733C102.921 30.6244 111.782 30.4996 115.318 31.1236Z" fill="white"/>
<path d="M106.124 41.5656C104.668 42.3561 104.252 43.2297 104.252 45.6842V48.0139L102.421 48.7211C97.0549 50.7596 93.0195 56.7086 93.0195 62.5328C93.0195 66.9842 95.9316 72.3508 99.5926 74.6805C102.338 76.4693 103.586 76.8854 107.289 77.3014C110.991 77.759 112.447 78.3414 113.945 80.1303C118.313 85.3305 114.777 93.0684 107.996 93.0684C103.836 93.0684 100.799 90.3643 100.133 85.9545C99.5094 82.0855 96.6389 80.6711 94.226 83.0424C92.8115 84.4568 92.7283 85.5385 93.6436 89.1162C94.8084 93.5676 98.7189 97.8941 102.921 99.3502C104.21 99.8078 104.252 99.891 104.252 102.096C104.252 104.842 104.668 105.674 106.332 106.381C107.33 106.797 107.83 106.797 108.828 106.381C110.492 105.715 110.908 104.842 110.908 102.221C110.908 100.598 111.075 100.057 111.657 99.891C119.769 97.1869 124.346 89.5322 122.39 81.8359C120.726 75.4293 116.108 71.4355 109.369 70.6035C105.292 70.0627 104.793 69.8963 103.046 68.6482C97.9285 64.7793 99.8422 56.5006 106.249 54.8365C110.783 53.5885 115.859 57.4574 115.9 62.2C115.9 63.9473 117.814 66.0273 119.437 66.0273C120.934 66.0273 122.973 63.9473 122.973 62.408C122.973 60.1199 121.683 56.251 120.227 54.0877C118.438 51.4668 116.524 49.9691 113.446 48.7211L111.116 47.7643L110.991 45.7674C110.867 43.3129 110.284 42.148 108.953 41.524C107.705 40.9416 107.206 40.9832 106.124 41.5656Z" fill="white"/>
<path d="M14.8919 120.442C14.3927 120.941 13.8935 121.773 13.8103 122.273C13.3527 124.353 11.9798 184.301 12.3542 185.299C13.0614 187.213 14.3927 187.379 29.9933 187.712L44.5538 188.003L45.5107 186.963C46.1763 186.256 46.5923 185.174 46.7587 183.718L47.0499 181.555L51.8341 179.059C58.948 175.398 57.3671 175.231 84.2833 182.803C96.5558 186.256 108.163 189.334 110.076 189.626C113.862 190.166 120.851 189.958 124.637 189.168C131.543 187.754 134.205 186.464 145.77 179.017C188.329 151.56 197.356 145.694 198.396 144.737C199.936 143.281 199.894 141.576 198.23 139.08C196.566 136.625 194.111 134.587 190.95 133.131C187.746 131.675 182.005 131.3 178.802 132.34C177.637 132.756 170.357 136.043 162.619 139.704C150.139 145.611 148.516 146.277 148.142 145.653C145.022 140.369 139.281 136.334 132.999 135.086C131.959 134.878 124.429 134.504 116.275 134.254C99.1767 133.755 97.8038 133.547 90.9812 130.094C82.3696 125.809 76.2542 124.436 67.1019 124.81C61.028 125.018 57.3671 125.85 51.5429 128.18L47.9651 129.595L48.2148 126.682C48.5476 122.897 47.8819 121.191 45.9267 120.609C45.1778 120.359 38.1472 120.026 30.1597 119.86C15.8903 119.61 15.7239 119.61 14.8919 120.442ZM41.2257 127.306C41.2673 127.348 40.9345 138.622 40.5601 152.351C40.1441 166.079 39.8112 178.144 39.8112 179.142L39.7696 180.972L29.4941 180.681C23.8362 180.515 19.1769 180.348 19.1353 180.307C19.0521 180.224 20.5081 127.473 20.5913 126.807C20.6329 126.641 41.1425 127.098 41.2257 127.306ZM78.7919 132.839C81.1216 133.422 84.9905 134.92 88.3603 136.5C96.3478 140.286 97.263 140.494 109.244 140.952C131.751 141.825 132.5 141.867 135.12 143.073C138.282 144.529 140.986 147.15 142.525 150.187C144.522 154.181 144.855 153.973 136.41 153.682C132.333 153.515 123.597 153.266 116.941 153.141C105.209 152.85 104.834 152.891 103.836 153.723C102.422 154.847 102.38 157.717 103.753 158.799C104.959 159.797 106.915 159.922 129.837 160.504L148.932 160.962L150.139 159.631C151.262 158.383 151.345 158.05 151.179 155.596L151.054 152.933L165.49 146.11C173.435 142.325 180.757 139.08 181.756 138.83C182.754 138.622 184.293 138.539 185.209 138.705C187.164 138.996 190.908 140.785 190.7 141.326C190.575 141.784 134.039 178.393 131.626 179.641C130.794 180.057 128.464 180.931 126.426 181.555C123.098 182.553 122.141 182.678 115.9 182.678H109.036L86.7794 176.313C58.9064 168.326 57.9495 168.201 50.3364 171.987C48.6308 172.819 47.2163 173.443 47.1331 173.318C46.9251 173.11 47.9235 138.04 48.1316 137.832C48.8804 137.124 54.3302 134.462 56.7015 133.671C63.8569 131.217 71.262 130.967 78.7919 132.839Z" fill="white"/>
</g>
</svg>
