<svg width="60" height="60" viewBox="0 0 60 60" fill="none" xmlns="http://www.w3.org/2000/svg">
<path d="M16.4531 1.44141C15.5859 1.76953 14.8359 2.53125 14.5547 3.38672C14.3438 3.99609 14.3672 22.4297 14.5781 22.9102C14.7188 23.2383 14.707 23.2852 14.2969 23.7422C13.6875 24.3984 13.5938 25.0078 13.9688 25.7578C14.3203 26.4609 14.8711 26.8359 15.5508 26.8359C16.5117 26.8359 17.2031 26.3203 17.4258 25.4297C17.5312 25.0312 17.5547 25.0195 18.1406 24.9844L18.75 24.9492V27.4688V30H17.707C16.2422 30 16.2891 29.9297 16.2891 32.2617V34.1602L14.2031 32.0742L12.1289 30H7.28906H2.46094V25.0195V20.0391H7.53516C11.9297 20.0391 12.6328 20.0156 12.8672 19.8516C13.1836 19.6406 13.207 19.207 12.9141 18.9492C12.7148 18.7734 12.1523 18.75 7.17188 18.75C2.32031 18.75 1.64062 18.7734 1.47656 18.9375C1.3125 19.1016 1.28906 19.8164 1.28906 25.0195V30.9258L1.54688 31.1016C1.76953 31.2656 2.47266 31.2891 6.73828 31.2891H11.6602L14.1211 33.75C16.043 35.6719 16.6406 36.2109 16.875 36.2109C17.4375 36.2109 17.4609 36.0938 17.4609 33.6094V31.2891H18.5156C20.1211 31.2891 20.0391 31.4648 20.0391 27.8906V24.9609H22.3477H24.6562L27.1875 27.4805C29.0742 29.3555 29.7891 30 30 30C30.2109 30 30.9258 29.3555 32.8125 27.4805L35.3438 24.9492L37.043 24.9844L38.7305 25.0195L38.7891 27.0703C38.8477 29.0625 38.8594 29.1328 39.1758 29.6836C39.7383 30.6328 40.9336 31.2891 42.0938 31.2891H42.5391V33.2695C42.5391 34.9219 42.5742 35.2852 42.7266 35.4375C43.1133 35.8359 43.3594 35.6602 45.5742 33.457L47.7539 31.3008L52.043 31.2656L56.3203 31.2305L57.0117 30.8789C57.7969 30.4805 58.4062 29.7773 58.5938 29.0625C58.6758 28.7578 58.7109 26.4492 58.6875 22.2422L58.6523 15.8789L58.3242 15.3164C57.9258 14.6484 57.2461 14.1211 56.4492 13.8867C55.5703 13.6289 41.9297 13.6289 41.0508 13.8867C40.2539 14.1211 39.5742 14.6484 39.1758 15.3164L38.8477 15.8789L38.7891 19.8047L38.7305 23.7305L36.7383 23.7656L34.7461 23.7891L32.3789 26.168L30 28.5352L27.6211 26.1562L25.2539 23.7891H21.3281C19.1133 23.7891 17.2266 23.7422 16.9922 23.6719C16.4648 23.5312 15.8555 22.9102 15.7031 22.3711C15.6328 22.125 15.5859 18.5742 15.5859 13.125C15.5859 7.67578 15.6328 4.125 15.7031 3.87891C15.8555 3.33984 16.4648 2.71875 16.9922 2.57812C17.5547 2.42578 42.457 2.41406 42.9961 2.57812C43.5352 2.73047 44.1562 3.33984 44.2969 3.86719C44.3672 4.10156 44.4141 6 44.4141 8.22656V12.1875L44.707 12.375C44.9766 12.5508 45.0234 12.5508 45.293 12.375L45.5977 12.1758L45.5625 7.81641C45.5273 2.96484 45.5391 3.03516 44.6836 2.19141C43.7812 1.27734 45 1.34766 30.1172 1.32422C20.1328 1.3125 16.7227 1.33594 16.4531 1.44141ZM56.4727 15.2344C56.7305 15.3633 57.0586 15.6562 57.1992 15.9023L57.4805 16.3477V22.5V28.6523L57.1992 29.0977C57.0586 29.3438 56.7305 29.6367 56.4727 29.7656C56.0508 29.9883 55.7695 30 51.6562 30H47.2852L45.5859 31.6992C44.6484 32.6367 43.8516 33.3984 43.8047 33.3984C43.7461 33.3984 43.7109 32.7188 43.7109 31.8867C43.7109 30 43.7109 30 42.4102 30C41.2852 30 40.6992 29.7539 40.3008 29.0977L40.0195 28.6523V22.5V16.3477L40.2891 15.9023C40.4414 15.6562 40.7578 15.3633 40.9922 15.2344C41.4023 15.0234 41.7422 15.0117 48.7266 15C55.7578 15 56.0391 15.0117 56.4727 15.2344ZM15.8672 24.5156C16.2305 24.668 16.3477 24.9844 16.1836 25.3008C15.9961 25.6289 15.6211 25.7109 15.293 25.5C14.9531 25.2773 14.918 24.9023 15.1992 24.5859C15.4219 24.3398 15.4805 24.3281 15.8672 24.5156Z" fill="white"/>
<path d="M48.3398 18.9375C48.0703 19.207 45 25.3828 45 25.6406C45 25.7695 45.0938 25.9453 45.2109 26.0508C45.3984 26.2266 45.8203 26.25 48.7734 26.25C51.8555 26.25 52.125 26.2383 52.3008 26.0391C52.418 25.9219 52.5 25.7344 52.5 25.6289C52.5 25.3711 49.418 19.1953 49.1602 18.9375C49.0547 18.832 48.8672 18.75 48.75 18.75C48.6328 18.75 48.4453 18.832 48.3398 18.9375ZM49.8398 22.9102L50.8594 24.9609H48.75H46.6406L47.6602 22.9102C48.2227 21.7852 48.7148 20.8594 48.75 20.8594C48.7852 20.8594 49.2773 21.7852 49.8398 22.9102Z" fill="white"/>
<path d="M35.8243 5.83594C35.5548 6.14062 35.5782 6.51562 35.8829 6.72656C36.0704 6.85547 36.422 6.91406 37.1134 6.91406H38.0861V7.88672C38.0861 8.96484 38.2618 9.375 38.7189 9.375C39.2697 9.375 39.3751 9.07031 39.3751 7.47656C39.3751 5.56641 39.4337 5.625 37.4767 5.625C36.2111 5.625 35.9884 5.64844 35.8243 5.83594Z" fill="white"/>
<path d="M25.3477 7.34766C24.6328 7.59375 23.7422 8.44922 23.3555 9.23438C23.0859 9.78516 23.0273 10.0547 23.0273 10.793C23.0273 12.2578 23.3203 12.6914 26.707 16.1953C28.2773 17.8242 29.6602 19.207 29.7891 19.2656C29.918 19.3242 30.082 19.3242 30.2109 19.2656C30.3281 19.207 31.7109 17.8242 33.293 16.1953C36.6797 12.6914 36.9727 12.2695 36.9727 10.793C36.9727 10.0547 36.9141 9.78516 36.6445 9.23438C36.0234 7.96875 34.7812 7.14844 33.457 7.14844C32.4492 7.14844 31.8164 7.44141 30.8672 8.35547L30 9.17578L29.1328 8.35547C28.1602 7.42969 27.5391 7.14844 26.4961 7.16016C26.1328 7.16016 25.6172 7.24219 25.3477 7.34766ZM27.457 8.60156C27.668 8.69531 28.2539 9.1875 28.7695 9.71484C29.4375 10.3945 29.7891 10.6641 29.9883 10.6641C30.1992 10.6641 30.5859 10.3594 31.3477 9.62109C32.4961 8.48438 32.7891 8.35547 33.8203 8.47266C34.8398 8.57812 35.7422 9.66797 35.7422 10.7812C35.7422 11.7422 35.3438 12.2812 32.5781 15.1172L30 17.7539L27.4219 15.1172C24.6797 12.3047 24.2578 11.7305 24.2578 10.8164C24.2578 9.89062 24.832 8.95312 25.6055 8.60156C26.0625 8.40234 26.9766 8.39062 27.457 8.60156Z" fill="white"/>
<path d="M20.8242 17.0859C20.6601 17.2617 20.6249 17.5664 20.6249 18.7734C20.6249 20.6836 20.5663 20.625 22.5234 20.625C23.789 20.625 24.0117 20.6015 24.1757 20.414C24.4453 20.1094 24.4218 19.7344 24.1171 19.5234C23.9296 19.3945 23.5781 19.3359 22.8867 19.3359H21.914V18.3633C21.914 17.2851 21.7382 16.875 21.2812 16.875C21.1288 16.875 20.9296 16.9687 20.8242 17.0859Z" fill="white"/>
<path d="M5.14449 23.1914C4.24215 23.4844 3.67965 24.293 3.78512 25.1719C4.03121 27.3633 7.21871 27.3633 7.4648 25.1719C7.60543 23.9297 6.30465 22.8281 5.14449 23.1914ZM6.0234 24.5625C6.30465 24.8438 6.25777 25.2773 5.91793 25.5C5.6484 25.6758 5.60152 25.6758 5.33199 25.5C4.8398 25.1719 5.05074 24.375 5.62496 24.375C5.74215 24.375 5.92965 24.457 6.0234 24.5625Z" fill="white"/>
<path d="M9.84374 23.3438C9.0703 23.7422 8.7539 24.2695 8.81249 25.0898C8.89452 26.1914 9.58593 26.8359 10.6992 26.8359C11.7422 26.8359 12.6562 25.7461 12.4805 24.7148C12.3398 23.8711 11.4141 23.0859 10.5469 23.0859C10.4414 23.0859 10.125 23.2031 9.84374 23.3438ZM11.0391 24.5742C11.3437 24.8438 11.3086 25.2656 10.957 25.5C10.3594 25.8867 9.73827 25.2539 10.125 24.668C10.3476 24.3281 10.7226 24.293 11.0391 24.5742Z" fill="white"/>
<path d="M22.1016 32.0625C21.8555 32.3086 21.8438 34.1367 22.0899 34.7227C22.3008 35.2383 22.8282 35.7656 23.3673 36.0234C23.6368 36.1523 23.7891 36.3047 23.7891 36.457C23.7891 36.5742 23.4962 37.4062 23.1446 38.2852C22.793 39.1758 22.5001 39.9844 22.5001 40.1016C22.5001 40.4062 22.9688 40.6641 23.5196 40.6641C24.0118 40.6641 24.0118 40.6641 24.3751 41.4258C24.8321 42.375 25.9454 43.5938 26.8243 44.1094C27.4571 44.4727 27.4805 44.5078 27.5157 45.0234L27.5508 45.5508L25.9923 45.6211C24.3282 45.6914 23.5899 45.8555 22.4883 46.4062C20.9766 47.1797 19.6173 48.7383 19.0782 50.3672C18.8321 51.0938 18.8204 51.3984 18.7735 54.7383C18.7383 57.9375 18.7501 58.3477 18.9258 58.5234C19.1016 58.6992 20.086 58.7109 30.0001 58.7109C39.9493 58.7109 40.8985 58.6992 41.0743 58.5234C41.2501 58.3477 41.2618 57.9492 41.2266 54.7383C41.1915 51.1875 41.1798 51.1406 40.8751 50.2852C40.0899 48.1406 38.4141 46.5469 36.211 45.8789C35.8243 45.7617 34.9454 45.6562 34.0196 45.6211L32.461 45.5508V45C32.461 44.5078 32.4962 44.4375 32.8477 44.2734C34.0079 43.7227 35.2969 42.2227 35.8477 40.793C36.129 40.0547 36.1407 39.8906 36.1876 37.1953C36.2227 34.4766 36.2227 34.3359 35.9649 33.7617C35.8126 33.3984 35.4962 32.9648 35.1915 32.6953C34.254 31.875 34.2774 31.875 27.9376 31.875C22.9571 31.875 22.2657 31.8984 22.1016 32.0625ZM34.1133 33.4336C34.336 33.5742 34.629 33.9258 34.7813 34.2188C35.0157 34.6875 35.0391 34.9102 35.0391 36.4219V38.1211L34.629 38.0508C33.7266 37.9102 33.1641 37.1602 33.1641 36.1289C33.1641 35.8008 33.0821 35.4492 32.9766 35.2969L32.8008 35.0391H28.5118C24.8555 35.0391 24.1758 35.0156 23.8477 34.8516C23.4141 34.6523 23.086 34.0781 23.086 33.5273V33.1641H28.4063H33.7149L34.1133 33.4336ZM31.9571 36.8555C32.2149 38.0742 33.2813 39.1172 34.4766 39.3164C34.7227 39.3633 34.9219 39.4453 34.9219 39.4922C34.9219 39.8203 34.3126 41.1914 33.9376 41.707C32.379 43.8164 29.379 44.3555 27.2579 42.8906C26.2735 42.2227 25.1954 40.7344 25.1954 40.043C25.1954 39.7266 24.7618 39.375 24.3868 39.375H24.0352L24.504 38.2383C24.7501 37.6172 24.961 36.9375 24.961 36.7383C24.961 36.5391 24.9962 36.3281 25.043 36.293C25.0782 36.2461 26.6251 36.2109 28.4766 36.2109H31.8282L31.9571 36.8555ZM31.2891 45.7266C31.2891 46.5703 31.4532 46.875 31.8985 46.875C32.0391 46.875 32.1094 46.9336 32.0743 47.0156C31.793 47.7656 30.0587 51.4453 30.0001 51.4453C29.9415 51.4453 28.2071 47.7656 27.9258 47.0156C27.879 46.9102 28.0899 46.875 28.7227 46.875C29.3438 46.875 29.6251 46.8281 29.7891 46.6758C30.2813 46.2422 29.8594 45.5859 29.0977 45.5859C28.7579 45.5859 28.711 45.5508 28.711 45.2578V44.9414H30.0001H31.2891V45.7266ZM27.9844 50.2031C28.9805 52.4062 29.5548 53.5195 29.7305 53.6367C30.2462 53.9766 30.4337 53.6836 32.0157 50.2031L33.504 46.9336L34.1251 46.8984C36.5977 46.7461 38.9883 48.4336 39.7266 50.8477C39.9376 51.5039 39.961 51.9375 39.961 54.5625V57.5391H30.0001H20.0391V54.5625C20.0391 51.9375 20.0626 51.5039 20.2735 50.8477C21.0001 48.4688 23.2501 46.8398 25.6993 46.9102L26.4962 46.9336L27.9844 50.2031Z" fill="white"/>
<path d="M32.6484 52.1719C32.5078 52.3711 32.4609 52.7461 32.4609 53.7422C32.4609 54.4688 32.4961 55.1484 32.5312 55.2539C32.6133 55.4531 34.0898 56.25 34.3945 56.25C34.6172 56.25 35.7188 55.7109 36.0117 55.4531C36.1758 55.3008 36.2109 55.0547 36.2109 53.7305C36.2109 52.6992 36.1641 52.1484 36.0703 52.0547C35.9766 51.9609 35.4258 51.9141 34.3828 51.9141C32.9062 51.9141 32.8125 51.9258 32.6484 52.1719ZM35.0156 53.8711C35.0508 54.5625 35.0391 54.6094 34.7227 54.7617C34.4414 54.9141 34.3594 54.9141 34.0781 54.7734C33.7734 54.6094 33.75 54.5508 33.75 53.8359V53.0742L34.3711 53.1094L34.9805 53.1445L35.0156 53.8711Z" fill="white"/>
<path d="M42.7969 38.2734C42.5742 38.4258 42.5391 38.5547 42.5391 39.1992V39.9492L40.4883 39.9844C39.3281 40.0078 38.4023 40.0664 38.3437 40.1367C38.2734 40.1953 38.1914 40.3828 38.1445 40.5234C38.0742 40.7695 38.332 41.0742 40.3008 43.0547L42.5391 45.3047V47.7773C42.5391 49.875 42.5625 50.2852 42.7266 50.4375C42.8906 50.6016 43.7695 50.625 50.625 50.625C57.4805 50.625 58.3594 50.6016 58.5234 50.4375C58.6875 50.2734 58.7109 49.5586 58.7109 44.3555V38.4492L58.4531 38.2734C58.2187 38.1094 57.2812 38.0859 50.625 38.0859C43.9687 38.0859 43.0312 38.1094 42.7969 38.2734ZM57.5391 44.3555V49.3359H50.625H43.7109V47.0273V44.707L41.9883 42.9844L40.2539 41.25H41.8008C43.6641 41.25 43.7109 41.2266 43.7109 40.125V39.375H50.625H57.5391V44.3555Z" fill="white"/>
<path d="M45.7736 41.5078C45.5275 41.8594 45.5392 42.0234 45.8204 42.3047C46.0431 42.5273 46.2072 42.5391 50.6251 42.5391C55.0431 42.5391 55.2072 42.5273 55.4298 42.3047C55.7111 42.0234 55.7228 41.8594 55.4767 41.5078L55.3009 41.25H50.6251H45.9493L45.7736 41.5078Z" fill="white"/>
<path d="M45.8204 43.9453C45.5392 44.2266 45.5275 44.3906 45.7736 44.7422L45.9493 45H50.6251H55.3009L55.4767 44.7422C55.7228 44.3906 55.7111 44.2266 55.4298 43.9453C55.2072 43.7227 55.0431 43.7109 50.6251 43.7109C46.2072 43.7109 46.0431 43.7227 45.8204 43.9453Z" fill="white"/>
<path d="M45.75 46.582C45.5742 46.8516 45.5742 46.8984 45.75 47.168C45.9258 47.4375 46.0078 47.4609 46.875 47.4609C47.7422 47.4609 47.8242 47.4375 48 47.168C48.1758 46.8984 48.1758 46.8516 48 46.582C47.8242 46.3125 47.7422 46.2891 46.875 46.2891C46.0078 46.2891 45.9258 46.3125 45.75 46.582Z" fill="white"/>
<path d="M49.5 46.582C49.3242 46.8516 49.3242 46.8984 49.5 47.168C49.8281 47.6602 50.625 47.4492 50.625 46.875C50.625 46.3008 49.8281 46.0898 49.5 46.582Z" fill="white"/>
<path d="M52.0547 46.4297C51.9727 46.5117 51.9141 46.7109 51.9141 46.875C51.9141 47.2617 52.1133 47.4609 52.5 47.4609C52.8867 47.4609 53.0859 47.2617 53.0859 46.875C53.0859 46.7109 53.0273 46.5117 52.9453 46.4297C52.7695 46.2539 52.2305 46.2539 52.0547 46.4297Z" fill="white"/>
<path d="M54.5625 46.4766C54.1758 46.8516 54.4688 47.4609 55.0196 47.4609C55.1954 47.4609 55.3829 47.3437 55.5 47.168C55.6758 46.8984 55.6758 46.8516 55.5 46.582C55.2774 46.2422 54.8438 46.1953 54.5625 46.4766Z" fill="white"/>
<path d="M1.42969 38.9297C1.32422 39.0352 1.28906 41.0977 1.28906 47.4727C1.28906 54.9609 1.3125 55.8984 1.47656 56.0625C1.64063 56.2266 2.46094 56.25 8.78906 56.25H15.9258L16.1016 55.9922C16.2656 55.7695 16.2891 55.0781 16.2891 50.8125V45.8906L18.457 43.7109C20.6602 41.4844 20.8359 41.2383 20.4375 40.8516C20.2852 40.6992 19.9219 40.6641 18.2695 40.6641H16.2891V39.9844C16.2891 39.5625 16.2188 39.2109 16.1016 39.0469L15.9258 38.7891H8.74219C3.31641 38.7891 1.53516 38.8242 1.42969 38.9297ZM15 40.7109C15 41.8125 15.0469 41.8359 16.8867 41.8359C17.7188 41.8359 18.3984 41.8711 18.3984 41.9297C18.3984 41.9766 17.6367 42.7734 16.6992 43.7109L15 45.4102V50.1797V54.9609H8.73047H2.46094V47.543C2.46094 43.4531 2.49609 40.0781 2.54297 40.043C2.57813 39.9961 5.40234 39.9609 8.8125 39.9609H15V40.7109Z" fill="white"/>
<path d="M4.57043 42.0703C4.28918 42.3516 4.27747 42.5156 4.52356 42.8672L4.69934 43.125H8.71887C12.4572 43.125 12.7501 43.1133 12.9259 42.9141C13.1954 42.6094 13.172 42.2344 12.8673 42.0234C12.6447 41.8594 12.047 41.8359 8.70715 41.8359C4.95715 41.8359 4.79309 41.8477 4.57043 42.0703Z" fill="white"/>
<path d="M4.5 44.707C4.32422 44.9766 4.32422 45.0234 4.5 45.293L4.6875 45.5859H8.73047C12.2344 45.5859 12.7852 45.5625 12.9375 45.3984C13.043 45.3047 13.125 45.1172 13.125 45C13.125 44.8828 13.043 44.6953 12.9375 44.6016C12.7852 44.4375 12.2344 44.4141 8.73047 44.4141H4.6875L4.5 44.707Z" fill="white"/>
<path d="M4.52356 47.1328C4.27747 47.4844 4.28918 47.6484 4.57043 47.9297C4.79309 48.1523 4.95715 48.1641 8.70715 48.1641C12.047 48.1641 12.6447 48.1406 12.8673 47.9766C13.1837 47.7656 13.2072 47.332 12.9142 47.0742C12.715 46.8984 12.2579 46.875 8.69544 46.875H4.69934L4.52356 47.1328Z" fill="white"/>
<path d="M4.57043 49.5703C4.28918 49.8516 4.27747 50.0156 4.52356 50.3672L4.69934 50.625H8.71887C12.4572 50.625 12.7501 50.6133 12.9259 50.4141C13.1954 50.1094 13.172 49.7344 12.8673 49.5234C12.6447 49.3594 12.047 49.3359 8.70715 49.3359C4.95715 49.3359 4.79309 49.3477 4.57043 49.5703Z" fill="white"/>
<path d="M4.5 52.207C4.32422 52.4766 4.32422 52.5234 4.5 52.793L4.6875 53.0859H8.73047C12.2344 53.0859 12.7852 53.0625 12.9375 52.8984C13.043 52.8047 13.125 52.6172 13.125 52.5C13.125 52.3828 13.043 52.1953 12.9375 52.1016C12.7852 51.9375 12.2344 51.9141 8.73047 51.9141H4.6875L4.5 52.207Z" fill="white"/>
</svg>
