<svg width="60" height="60" viewBox="0 0 60 60" fill="none" xmlns="http://www.w3.org/2000/svg">
<path d="M10.4063 0.117191C5.46101 0.902348 1.53523 4.5 0.316477 9.375C-0.0585229 10.8984 -0.0350854 13.582 0.375071 15.1289C0.961008 17.3086 2.0157 19.1602 3.56257 20.6953C4.68757 21.8086 5.61335 22.4648 7.0782 23.1563C8.7071 23.918 9.72663 24.1523 11.7188 24.2227C13.6641 24.293 14.9532 24.082 16.5821 23.4492C19.5704 22.3008 22.3009 19.5703 23.4493 16.582C24.5391 13.793 24.5274 10.3945 23.4493 7.69922C23.004 6.5625 22.2188 5.22657 21.8204 4.92188C21.3165 4.51172 20.7657 4.66407 20.5079 5.26172C20.3555 5.64844 20.379 5.73047 21.1407 6.96094C21.9962 8.36719 22.3946 9.78516 22.4649 11.7305C22.5587 13.9922 22.1251 15.6797 20.9532 17.6719C20.4493 18.5273 18.5274 20.4492 17.6719 20.9531C16.6055 21.5859 15.2462 22.125 14.1915 22.3359C12.7149 22.6289 10.4766 22.5234 9.1407 22.0898C5.54304 20.9297 3.02351 18.2578 2.03913 14.5781C1.72273 13.3711 1.74616 10.8164 2.08601 9.55079C2.61335 7.65235 3.56257 6.04688 4.99226 4.67579C5.96491 3.75 6.6446 3.28125 7.7696 2.75391C10.7696 1.32422 14.4727 1.48829 17.3673 3.17579C18.2696 3.70313 18.6094 3.73829 18.961 3.36329C19.3477 2.95313 19.3009 2.4375 18.8438 2.03907C18.2462 1.53516 16.4063 0.726566 15.1524 0.398441C13.8634 0.0703163 11.5665 -0.0703087 10.4063 0.117191Z" fill="white"/>
<path d="M45.7852 0.175783C41.8711 0.914064 38.7305 3.26953 36.9844 6.76172C36.1172 8.4961 35.7422 10.125 35.7422 12.1641C35.7422 15.5391 36.9023 18.2813 39.3047 20.6953C41.7188 23.1094 44.4609 24.2578 47.8477 24.2578C53.4141 24.2578 58.1602 20.5898 59.6133 15.1641C59.8828 14.1563 59.918 13.7695 59.9297 12.1875C59.9297 10.6523 59.8945 10.207 59.6602 9.32813C58.4883 4.81641 55.1016 1.41797 50.6836 0.339846C49.4062 0.0234394 47.0039 -0.0585918 45.7852 0.175783ZM50.4492 2.09766C52.2188 2.56641 53.625 3.36328 55.0078 4.67578C59.0273 8.51953 59.3203 14.625 55.6992 18.9141C53.7539 21.2227 50.9531 22.5 47.8359 22.5C44.8359 22.4883 42.2812 21.375 40.2422 19.1836C38.9414 17.7773 38.0391 16.0313 37.6641 14.1914C37.3711 12.7148 37.4766 10.4766 37.9102 9.14063C39.1406 5.33203 42.1055 2.6836 45.9961 1.92188C47.1328 1.69922 49.2539 1.78125 50.4492 2.09766Z" fill="white"/>
<path d="M49.5704 6.31641C46.8165 7.01954 46.3243 7.20704 45.8438 7.71094C45.211 8.39063 45.1173 8.78907 45.1173 10.9805V12.9961L44.379 12.9258C41.3204 12.6445 40.1603 16.8281 42.9376 18.1172C44.0743 18.6445 45.1173 18.4453 46.0079 17.5313C46.8399 16.6758 46.8751 16.4648 46.8751 12.5039C46.8751 9.21094 46.8751 9.17579 47.1446 8.92969C47.3204 8.76563 48.1173 8.50782 49.8048 8.08594C51.129 7.75782 52.3009 7.46485 52.4181 7.42969C52.6056 7.3711 52.6173 7.53516 52.6173 9.71485V12.0703L51.9259 12C50.6954 11.8711 49.6407 12.457 49.1368 13.5586C48.5509 14.8477 48.9962 16.3008 50.2149 17.0508C50.7071 17.3555 50.8946 17.4023 51.6095 17.4023C52.5587 17.3906 52.9688 17.2266 53.6017 16.5703C54.3517 15.7969 54.3868 15.5273 54.3517 10.9219C54.3165 6.98438 54.3048 6.79688 54.0704 6.49219C53.3204 5.47266 52.8985 5.46094 49.5704 6.31641ZM52.2774 14.0508C52.4767 14.2617 52.6173 14.5195 52.6173 14.707C52.6173 15.082 52.0431 15.7031 51.6798 15.7031C51.3399 15.7031 50.7892 15.3984 50.6954 15.1758C50.5313 14.7422 50.6251 14.2852 50.9298 14.0039C51.3634 13.6055 51.8438 13.6172 52.2774 14.0508ZM44.6954 14.9063C44.8712 15.0586 45.0353 15.3398 45.0704 15.5508C45.129 15.8672 45.0821 15.9844 44.7892 16.2891C44.3321 16.7344 43.8165 16.7578 43.4181 16.3477C42.5274 15.4688 43.7579 14.0859 44.6954 14.9063Z" fill="white"/>
<path d="M13.9689 5.34376C13.383 5.4961 12.4103 6.0586 12.2345 6.33985C12.1994 6.41016 12.0705 6.31641 11.9416 6.10548C11.5666 5.47266 10.6994 5.50782 10.4064 6.15235C10.2775 6.4336 10.4299 7.13673 10.8634 8.27344C10.8869 8.35548 10.6408 8.42579 10.1838 8.48438C8.75407 8.62501 7.5822 9.42188 6.97282 10.6289C6.65642 11.25 6.62126 11.4141 6.63298 12.4805C6.6447 15.082 7.82829 17.4375 9.55095 18.2813C10.0783 18.5508 10.3009 18.5742 11.9533 18.6094C13.5705 18.6445 13.8517 18.6211 14.4259 18.4102C15.7033 17.9297 16.7345 16.6992 17.3088 14.9531C17.5783 14.1328 17.6252 13.8047 17.6252 12.4805C17.6369 11.0039 17.6252 10.9453 17.2853 10.3242C17.0978 9.97266 16.7463 9.55079 16.5119 9.37501L16.09 9.07032L16.4181 8.58985C16.8283 8.00391 17.1564 6.79688 17.0627 6.26954C16.9689 5.77735 16.7228 5.56641 15.9494 5.34376C15.1759 5.1211 14.7892 5.1211 13.9689 5.34376ZM15.2345 7.07813C15.2345 7.35938 14.7189 8.00391 14.297 8.21485C13.8517 8.46094 13.1252 8.50782 13.1252 8.3086C13.1252 7.99219 13.6408 7.38282 14.0978 7.16016C14.6603 6.87891 15.2345 6.83204 15.2345 7.07813ZM13.9924 10.3125C15.6799 10.5586 15.9963 10.9688 15.9142 12.7617C15.8088 14.625 15.1291 16.043 14.0627 16.6055C13.5705 16.875 13.4299 16.8867 12.0002 16.8516C10.6056 16.8164 10.4299 16.793 10.0549 16.5352C9.2111 15.9609 8.6486 14.7891 8.40251 13.1133C8.30876 12.4102 8.30876 12.1055 8.42595 11.707C8.60173 11.1094 9.2111 10.4883 9.76189 10.3242C10.2658 10.1836 12.9963 10.1719 13.9924 10.3125Z" fill="white"/>
<path d="M29.1915 17.9297C28.0782 18.1641 26.8946 19.207 26.5313 20.2969C25.9571 22.043 26.672 23.9062 28.2657 24.7969C28.8282 25.1016 28.9923 25.1367 30.0001 25.1367C31.0079 25.1367 31.172 25.1016 31.7345 24.7969C33.8204 23.6367 34.3126 20.8594 32.7423 19.1133C31.8634 18.1406 30.4688 17.6719 29.1915 17.9297ZM30.6212 19.7344C31.4767 20.0391 31.8985 20.6602 31.8985 21.5859C31.8985 22.6406 31.0899 23.4375 30.0001 23.4375C28.9103 23.4375 28.1017 22.6406 28.1017 21.5859C28.1017 20.9766 28.3009 20.4609 28.6876 20.1211C28.9454 19.8867 29.6954 19.582 30.0001 19.582C30.0938 19.582 30.3751 19.6523 30.6212 19.7344Z" fill="white"/>
<path d="M25.5235 26.3789C23.625 26.6602 22.0196 28.2656 21.6797 30.2461C21.5977 30.6914 21.5625 32.0156 21.586 33.4805C21.6211 35.8594 21.6329 35.9766 21.879 36.2227C22.1954 36.5391 22.7579 36.5625 23.0743 36.2813C23.2852 36.0938 23.3086 35.8711 23.3438 33.1875C23.379 29.8945 23.4493 29.6133 24.3399 28.8164C25.1602 28.0781 25.254 28.0664 30 28.0664C34.7461 28.0664 34.8399 28.0781 35.6602 28.8164C36.5508 29.6133 36.6211 29.8945 36.6563 33.1875C36.6915 35.8711 36.7149 36.0938 36.9258 36.2813C37.2422 36.5625 37.8047 36.5391 38.1211 36.2227C38.3672 35.9766 38.379 35.8594 38.4141 33.4805C38.4375 32.0156 38.4024 30.6914 38.3204 30.2461C37.9688 28.207 36.3985 26.6602 34.3829 26.3672C33.4219 26.2266 26.4844 26.2383 25.5235 26.3789Z" fill="white"/>
<path d="M25.5938 31.3008C25.3828 31.5352 25.3711 31.7695 25.3711 34.6992C25.3711 37.7813 25.3711 37.8516 25.6289 38.0977C25.9453 38.4141 26.5078 38.4375 26.8359 38.1445C27.0586 37.9453 27.0703 37.793 27.0703 34.6875C27.0703 31.6875 27.0586 31.4297 26.8594 31.2539C26.543 30.9727 25.8633 30.9961 25.5938 31.3008Z" fill="white"/>
<path d="M33.1289 31.2656C32.9531 31.4531 32.9297 31.875 32.9297 34.7109C32.9297 37.793 32.9414 37.9453 33.1641 38.1445C33.4922 38.4375 34.0547 38.4141 34.3711 38.0977C34.6289 37.8516 34.6289 37.7813 34.6289 34.6992C34.6289 31.7695 34.6172 31.5352 34.4062 31.3008C34.1133 30.9844 33.3984 30.9609 33.1289 31.2656Z" fill="white"/>
<path d="M9.84375 35.9062C8.70703 36.1523 7.67578 36.5273 6.5625 37.1016C3.46875 38.707 1.30078 41.4141 0.386719 44.8594C0.117188 45.8438 0.0820312 46.2305 0.0703125 47.8125C0.0703125 49.2891 0.117188 49.8164 0.316406 50.625C1.44141 55.1133 4.79297 58.4766 9.32812 59.6602C10.207 59.8945 10.6523 59.9297 12.1875 59.9297C13.7695 59.918 14.1562 59.8828 15.1523 59.6133C19.4297 58.4648 22.7578 55.1602 23.9062 50.918C24.293 49.5 24.3516 46.9453 24.0469 45.4688C23.5664 43.125 22.5352 41.1797 20.8711 39.457C19.2422 37.7695 17.3906 36.6797 15.1406 36.0703C13.9805 35.7656 10.9922 35.6719 9.84375 35.9062ZM14.2734 37.6875C16.2305 38.0859 17.918 39.0117 19.4531 40.5469C21.5273 42.6211 22.5 44.9531 22.5 47.8594C22.5 50.9531 21.2109 53.7656 18.9141 55.6992C17.0273 57.3047 15.0586 58.0781 12.5977 58.207C7.76953 58.4414 3.39844 55.2188 2.08594 50.4492C1.74609 49.1836 1.72266 46.6289 2.03906 45.4219C3.11719 41.3906 6.23438 38.4023 10.207 37.6289C11.0859 37.4531 13.3008 37.4883 14.2734 37.6875Z" fill="white"/>
<path d="M5.87109 43.5469C5.63672 43.8516 5.625 43.957 5.625 47.8945V51.9258L5.91797 52.207C6.19922 52.5 6.22266 52.5 8.4375 52.5C10.6172 52.5 10.6875 52.5117 10.9453 52.7695C11.0859 52.9219 11.25 53.2617 11.2852 53.5195C11.4258 54.3516 12.1641 54.6445 12.7148 54.082C12.8789 53.9297 13.0078 53.6602 13.0078 53.4961C13.0078 53.3086 13.1484 53.0508 13.3477 52.8398L13.6875 52.5H15.8555C17.8594 52.5 18.0352 52.4883 18.3281 52.2539L18.6328 52.0195V47.8594C18.6328 43.8633 18.6211 43.6992 18.3984 43.4766C18.1758 43.2539 18.0117 43.2422 15.7734 43.2422H13.3828L12.7617 43.5703L12.1289 43.8984L11.6719 43.6055C11.2148 43.3008 11.168 43.3008 8.67188 43.2656L6.12891 43.2305L5.87109 43.5469ZM10.957 45.293L11.25 45.5742V48.2344V50.8828L10.9922 50.8125C10.8398 50.7773 9.97266 50.7422 9.05859 50.7422H7.38281V47.8711V45H9.02344C10.6172 45 10.6875 45.0117 10.957 45.293ZM16.875 47.8711V50.7422H15.2109C14.2852 50.7422 13.418 50.7773 13.2773 50.8125L13.0078 50.8828V48.3516C13.0078 45.7734 13.0547 45.4687 13.4648 45.1523C13.5938 45.0586 14.1797 45.0117 15.2695 45H16.875V47.8711Z" fill="white"/>
<path d="M45.3516 35.9648C42.9493 36.4922 41.0977 37.5117 39.3047 39.3047C37.4766 41.1328 36.4688 42.9844 35.9532 45.4688C35.6368 46.957 35.7071 49.5117 36.0938 50.918C36.3985 52.043 37.1719 53.7188 37.8516 54.7383C39.3985 57.0352 42.0235 58.8516 44.8711 59.625C45.8438 59.8828 46.2422 59.918 47.8125 59.9297C49.3477 59.9297 49.793 59.8945 50.6719 59.6602C55.2071 58.4766 58.4766 55.207 59.6602 50.6719C59.8946 49.793 59.9297 49.3477 59.9297 47.8125C59.918 46.2422 59.8829 45.8438 59.625 44.8711C58.4649 40.5469 55.1602 37.2188 50.8829 36.0703C49.5704 35.7188 46.7227 35.6602 45.3516 35.9648ZM50.8594 37.9102C54.4454 39.0586 56.9766 41.7422 57.961 45.4336C58.2774 46.6289 58.254 49.1836 57.9141 50.4492C57.3868 52.3477 56.4375 53.9531 55.0079 55.3242C53.625 56.6367 52.2071 57.4336 50.4493 57.8906C45.0821 59.2852 39.6329 56.2266 37.9102 50.8594C37.4766 49.5234 37.3711 47.2852 37.6641 45.8086C38.0743 43.7695 38.9883 42.1055 40.5469 40.5469C41.7188 39.375 42.4102 38.9062 43.9102 38.2617C45.3399 37.6406 46.2071 37.5 48.1641 37.5469C49.629 37.582 50.004 37.6289 50.8594 37.9102Z" fill="white"/>
<path d="M41.2734 43.4766C41.0625 43.6055 40.793 43.875 40.6641 44.0859C40.4414 44.4492 40.4297 44.6836 40.4297 47.8008C40.4297 51 40.4414 51.1406 40.6875 51.5742C41.1094 52.3359 41.6719 52.5234 43.3359 52.4766C44.6484 52.4414 44.7539 52.418 45.1523 52.1133C45.4336 51.9023 45.6445 51.5977 45.7852 51.2109L45.9961 50.625H47.8945H49.8047V50.9063C49.8047 51.2461 50.2266 51.8672 50.6602 52.1953C50.9648 52.418 51.1523 52.4414 52.5586 52.4414C54.2695 52.4414 54.457 52.3828 55.0078 51.6328C55.2422 51.3281 55.2539 51.1289 55.2891 48.0234C55.3242 44.918 55.3125 44.7188 55.0781 44.25C54.6914 43.4297 54.2109 43.2422 52.5586 43.2422C51.0234 43.2422 50.5547 43.3828 50.1445 43.957C50.0156 44.1445 49.875 44.4844 49.8398 44.707L49.7695 45.1172H47.8594H45.9492L45.8672 44.6953C45.832 44.4727 45.6562 44.1211 45.5039 43.9336C44.9883 43.3359 44.6836 43.2422 43.1016 43.2422C41.8711 43.2422 41.6016 43.2773 41.2734 43.4766ZM44.1797 47.8711V50.7422H43.1836H42.1875V47.8711V45H43.1836H44.1797V47.8711ZM53.5547 47.8711V50.7422H52.5586H51.5625V47.8711V45H52.5586H53.5547V47.8711ZM49.8047 47.8711V48.8672H47.8711H45.9375V47.8711V46.875H47.8711H49.8047V47.8711Z" fill="white"/>
</svg>
