<svg width="60" height="60" viewBox="0 0 60 60" fill="none" xmlns="http://www.w3.org/2000/svg">
<path d="M30.0586 0.292969L29.7656 0.574219V5.66016V10.7461L30.0586 11.0156C30.4336 11.3672 30.9727 11.3672 31.3477 11.0156L31.6406 10.7461V5.66016V0.574219L31.3477 0.292969C31.1719 0.105469 30.9258 0 30.7031 0C30.4805 0 30.2344 0.105469 30.0586 0.292969Z" fill="white"/>
<path d="M22.6758 5.21484L22.3828 5.49609V8.12109V10.7461L22.6758 11.0156C22.8516 11.1797 23.1094 11.2852 23.3203 11.2852C23.5312 11.2852 23.7891 11.1797 23.9648 11.0156L24.2578 10.7461V8.12109V5.49609L23.9648 5.21484C23.7891 5.02734 23.543 4.92188 23.3203 4.92188C23.0977 4.92188 22.8516 5.02734 22.6758 5.21484Z" fill="white"/>
<path d="M37.4414 5.21484L37.1484 5.49609V8.10937C37.1602 10.9219 37.1719 11.0156 37.7695 11.2383C38.1328 11.3789 38.3906 11.3086 38.7656 10.9805C39.0234 10.7461 39.0234 10.6875 39.0234 8.12109V5.49609L38.7305 5.21484C38.5547 5.02734 38.3086 4.92187 38.0859 4.92187C37.8633 4.92187 37.6172 5.02734 37.4414 5.21484Z" fill="white"/>
<path d="M28.3594 13.3008C23.8828 14.0625 19.9453 16.9805 17.9414 21.0352C16.9102 23.1094 16.4766 24.9727 16.4766 27.3633C16.4766 31.1602 17.7773 34.4531 20.3555 37.1602C25.1836 42.2461 32.8125 43.0664 38.7305 39.1641C39.1875 38.8711 40.0898 38.0977 40.7344 37.4414C42.8906 35.3086 44.2031 32.8242 44.7773 29.7656C44.9648 28.7813 44.9648 25.9336 44.7773 24.9727C43.7461 19.6406 40.1836 15.5039 35.1797 13.8281C33.1875 13.1602 30.4336 12.9492 28.3594 13.3008ZM32.7656 15.2461C35.4023 15.7148 37.6758 16.9336 39.5625 18.8906C41.0508 20.4375 42.0586 22.2305 42.6211 24.3516C42.8906 25.3477 42.9258 25.7227 42.9258 27.3633C42.9258 29.0273 42.8906 29.3789 42.6211 30.4102C41.0391 36.3164 35.6484 40.1133 29.5547 39.5977C23.0859 39.0469 18.0938 33.293 18.4336 26.7891C18.7266 21.1406 22.7109 16.5 28.3008 15.3164C29.2734 15.1055 31.7695 15.0703 32.7656 15.2461Z" fill="white"/>
<path d="M30.1758 18.1875C29.7656 18.4102 29.6484 18.6563 29.6484 19.3477V20.0039L29.1328 20.2031C27.6211 20.7773 26.4844 22.4531 26.4844 24.0938C26.4844 25.3477 27.3047 26.8594 28.3359 27.5156C29.1094 28.0195 29.4609 28.1367 30.5039 28.2539C31.5469 28.3828 31.957 28.5469 32.3789 29.0508C33.6094 30.5156 32.6133 32.6953 30.7031 32.6953C29.5312 32.6953 28.6758 31.9336 28.4883 30.6914C28.3125 29.6016 27.5039 29.2031 26.8242 29.8711C26.4258 30.2695 26.4023 30.5742 26.6602 31.582C26.9883 32.8359 28.0898 34.0547 29.2734 34.4648C29.6367 34.5938 29.6484 34.6172 29.6484 35.2383C29.6484 36.0117 29.7656 36.2461 30.2344 36.4453C30.5156 36.5625 30.6562 36.5625 30.9375 36.4453C31.4062 36.2578 31.5234 36.0117 31.5234 35.2734C31.5234 34.8164 31.5703 34.6641 31.7344 34.6172C34.0195 33.8555 35.3086 31.6992 34.7578 29.5313C34.2891 27.7266 32.9883 26.6016 31.0898 26.3672C29.9414 26.2148 29.8008 26.168 29.3086 25.8164C27.8672 24.7266 28.4062 22.3945 30.2109 21.9258C31.4883 21.5742 32.918 22.6641 32.9297 24C32.9297 24.4922 33.4688 25.0781 33.9258 25.0781C34.3477 25.0781 34.9219 24.4922 34.9219 24.0586C34.9219 23.4141 34.5586 22.3242 34.1484 21.7148C33.6445 20.9766 33.1055 20.5547 32.2383 20.2031L31.582 19.9336L31.5469 19.3711C31.5117 18.6797 31.3477 18.3516 30.9727 18.1758C30.6211 18.0117 30.4805 18.0234 30.1758 18.1875Z" fill="white"/>
<path d="M4.4765 40.4062C4.33588 40.5469 4.19525 40.7812 4.17182 40.9219C4.04291 41.5078 3.65619 58.3945 3.76166 58.6758C3.96088 59.2148 4.33588 59.2617 8.73041 59.3555L12.832 59.4375L13.1015 59.1445C13.289 58.9453 13.4062 58.6406 13.4531 58.2305L13.5351 57.6211L14.8828 56.918C16.8867 55.8867 16.4413 55.8398 24.0234 57.9727C27.4804 58.9453 30.7499 59.8125 31.289 59.8945C32.3554 60.0469 34.3242 59.9883 35.3906 59.7656C37.3359 59.3672 38.0859 59.0039 41.3437 56.9062C53.332 49.1719 55.8749 47.5195 56.1679 47.25C56.6015 46.8398 56.5898 46.3594 56.121 45.6562C55.6523 44.9648 54.9609 44.3906 54.0703 43.9805C53.1679 43.5703 51.5507 43.4648 50.6484 43.7578C50.3203 43.875 48.2695 44.8008 46.0898 45.832C42.5742 47.4961 42.1171 47.6836 42.0117 47.5078C41.1328 46.0195 39.5156 44.8828 37.746 44.5312C37.4531 44.4727 35.332 44.3672 33.0351 44.2969C28.2187 44.1562 27.832 44.0977 25.9101 43.125C23.4843 41.918 21.7617 41.5312 19.1835 41.6367C17.4726 41.6953 16.4413 41.9297 14.8007 42.5859L13.7929 42.9844L13.8632 42.1641C13.957 41.0977 13.7695 40.6172 13.2187 40.4531C13.0078 40.3828 11.0273 40.2891 8.77729 40.2422C4.75775 40.1719 4.71088 40.1719 4.4765 40.4062ZM11.8945 42.3398C11.9062 42.3516 11.8124 45.5273 11.707 49.3945C11.5898 53.2617 11.496 56.6602 11.496 56.9414L11.4843 57.457L8.58979 57.375C6.99604 57.3281 5.68354 57.2812 5.67182 57.2695C5.64838 57.2461 6.05854 42.3867 6.08197 42.1992C6.09369 42.1523 11.871 42.2812 11.8945 42.3398ZM22.4765 43.8984C23.1328 44.0625 24.2226 44.4844 25.1718 44.9297C27.4218 45.9961 27.6796 46.0547 31.0546 46.1836C37.3945 46.4297 37.6054 46.4414 38.3437 46.7812C39.2343 47.1914 39.996 47.9297 40.4296 48.7852C40.9921 49.9102 41.0859 49.8516 38.707 49.7695C37.5585 49.7227 35.0976 49.6523 33.2226 49.6172C29.9179 49.5352 29.8124 49.5469 29.5312 49.7812C29.1328 50.0977 29.121 50.9062 29.5078 51.2109C29.8476 51.4922 30.3984 51.5273 36.8554 51.6914L42.2343 51.8203L42.5742 51.4453C42.8906 51.0937 42.914 51 42.8671 50.3086L42.832 49.5586L46.8984 47.6367C49.1367 46.5703 51.1992 45.6562 51.4804 45.5859C51.7617 45.5273 52.1953 45.5039 52.4531 45.5508C53.0038 45.6328 54.0585 46.1367 53.9999 46.2891C53.9648 46.418 38.039 56.7305 37.3593 57.082C37.1249 57.1992 36.4687 57.4453 35.8945 57.6211C34.957 57.9023 34.6874 57.9375 32.9296 57.9375H30.996L24.7265 56.1445C16.8749 53.8945 16.6054 53.8594 14.4609 54.9258C13.9804 55.1602 13.582 55.3359 13.5585 55.3008C13.4999 55.2422 13.7812 45.3633 13.8398 45.3047C14.0507 45.1055 15.5859 44.3555 16.2538 44.1328C18.2695 43.4414 20.3554 43.3711 22.4765 43.8984Z" fill="white"/>
</svg>
